<?xml version="1.0" standalone="no"?>
<!DOCTYPE svg PUBLIC "-//W3C//DTD SVG 20010904//EN"
 "http://www.w3.org/TR/2001/REC-SVG-20010904/DTD/svg10.dtd">
<svg version="1.0" xmlns="http://www.w3.org/2000/svg"
 width="700.000000pt" height="700.000000pt" viewBox="0 0 700.000000 700.000000"
 preserveAspectRatio="xMidYMid meet">
<metadata>
Created by potrace 1.14, written by Peter Selinger 2001-2017
</metadata>
<g transform="translate(0.000000,700.000000) scale(0.100000,-0.100000)"
fill="#000000" stroke="none">
<path d="M2797 6299 l-698 -700 352 -349 352 -349 -352 -352 -352 -352 351
-350 350 -351 345 345 c190 189 345 349 345 356 0 6 -155 166 -345 356 l-346
345 351 351 350 350 177 -177 c98 -97 255 -254 349 -349 l172 -171 -351 -351
-351 -351 345 -345 c189 -189 344 -349 344 -355 0 -6 -154 -165 -343 -354
l-343 -343 351 -351 351 -351 -350 -350 -350 -349 -349 348 -350 349 351 350
351 351 -344 345 c-190 189 -350 345 -357 345 -12 0 -693 -678 -693 -691 0 -4
156 -163 346 -354 l347 -346 -347 -343 c-190 -189 -346 -349 -346 -355 0 -6
313 -324 695 -706 l695 -695 701 701 700 700 -352 349 -351 350 351 351 352
352 -350 350 -350 350 349 348 348 349 -350 350 -351 350 352 349 352 350
-700 700 c-386 386 -702 701 -704 700 -1 0 -316 -316 -700 -700z"/>
<path d="M703 4204 c-381 -382 -693 -698 -693 -704 0 -6 313 -323 696 -706
l695 -695 349 352 350 351 -350 349 -349 349 345 344 c189 190 344 349 344
354 0 9 -684 703 -691 701 -2 0 -316 -313 -696 -695z"/>
<path d="M5253 4553 c-189 -190 -343 -350 -343 -355 0 -4 155 -163 345 -353
l344 -345 -344 -345 c-190 -189 -345 -348 -345 -353 0 -5 155 -165 345 -356
l344 -347 701 701 700 700 -700 700 c-385 385 -701 700 -702 699 -2 0 -157
-156 -345 -346z"/>
</g>
</svg>
